<?xml version="1.0" encoding="iso-8859-1"?>
<!-- Uploaded to: SVG Repo, www.svgrepo.com, Generator: SVG Repo Mixer Tools -->
<svg fill="#000000" height="800px" width="800px" version="1.1" id="Layer_1" xmlns="http://www.w3.org/2000/svg" xmlns:xlink="http://www.w3.org/1999/xlink" 
	 viewBox="0 0 330 330" xml:space="preserve">
<g id="XMLID_453_">
	<path id="XMLID_454_" d="M102.703,0C69.497,0,42.482,27.018,42.482,60.228c0,52.722,49.889,85.939,52.014,87.328
		c2.492,1.629,5.35,2.444,8.207,2.444c2.856,0,5.714-0.815,8.207-2.444c0.701-0.458,7.084-4.696,15.211-12.267
		c16.789-15.641,36.803-41.36,36.803-75.061C162.924,27.018,135.908,0,102.703,0z M102.704,75.146
		c-8.324,0-15.074-6.748-15.074-15.072c0-8.323,6.75-15.072,15.074-15.072s15.07,6.749,15.07,15.072
		C117.774,68.398,111.028,75.146,102.704,75.146z"/>
	<path id="XMLID_459_" d="M227.297,90.013c-33.205,0-60.221,27.018-60.221,60.228c0,52.722,49.891,85.939,52.014,87.328
		c2.494,1.629,5.351,2.444,8.207,2.444c2.857,0,5.715-0.815,8.207-2.444c0.701-0.459,7.086-4.696,15.211-12.267
		c16.789-15.641,36.803-41.359,36.803-75.061C287.518,117.031,260.503,90.013,227.297,90.013z M227.297,165.159
		c-8.324,0-15.074-6.748-15.074-15.072c0-8.323,6.75-15.072,15.074-15.072c8.324,0,15.074,6.749,15.074,15.072
		C242.371,158.411,235.621,165.159,227.297,165.159z"/>
	<path id="XMLID_462_" d="M102.703,180c-33.206,0-60.221,27.018-60.221,60.228c0,52.722,49.889,85.94,52.014,87.328
		c2.492,1.629,5.35,2.444,8.207,2.444c2.856,0,5.714-0.815,8.207-2.444c0.701-0.458,7.084-4.696,15.211-12.267
		c16.789-15.641,36.803-41.36,36.803-75.061C162.924,207.018,135.908,180,102.703,180z M102.704,255.146
		c-8.324,0-15.074-6.748-15.074-15.072c0-8.323,6.75-15.072,15.074-15.072s15.07,6.749,15.07,15.072
		C117.774,248.398,111.028,255.146,102.704,255.146z"/>
</g>
</svg>