<?xml version="1.0" encoding="UTF-8" standalone="no"?>
<!-- Created with Inkscape (http://www.inkscape.org/) -->

<svg
   width="256"
   height="100"
   viewBox="0 0 67.733324 26.45833"
   version="1.1"
   id="svg5"
   xml:space="preserve"
   inkscape:version="1.2.1 (9c6d41e410, 2022-07-14)"
   sodipodi:docname="logo_1.svg"
   xmlns:inkscape="http://www.inkscape.org/namespaces/inkscape"
   xmlns:sodipodi="http://sodipodi.sourceforge.net/DTD/sodipodi-0.dtd"
   xmlns:xlink="http://www.w3.org/1999/xlink"
   xmlns="http://www.w3.org/2000/svg"
   xmlns:svg="http://www.w3.org/2000/svg"><sodipodi:namedview
     id="namedview7"
     pagecolor="#ffffff"
     bordercolor="#666666"
     borderopacity="1.0"
     inkscape:showpageshadow="2"
     inkscape:pageopacity="0.0"
     inkscape:pagecheckerboard="0"
     inkscape:deskcolor="#d1d1d1"
     inkscape:document-units="mm"
     showgrid="false"
     inkscape:zoom="1.6554512"
     inkscape:cx="-9.0609736"
     inkscape:cy="95.442255"
     inkscape:window-width="1600"
     inkscape:window-height="837"
     inkscape:window-x="-8"
     inkscape:window-y="-8"
     inkscape:window-maximized="1"
     inkscape:current-layer="layer1" /><defs
     id="defs2"><linearGradient
       inkscape:collect="always"
       id="linearGradient1645"><stop
         style="stop-color:#ffff00;stop-opacity:0.52006984;"
         offset="0.58195221"
         id="stop1641" /><stop
         style="stop-color:#ffffff;stop-opacity:0;"
         offset="1"
         id="stop1643" /></linearGradient><linearGradient
       inkscape:collect="always"
       id="linearGradient1124"><stop
         style="stop-color:#ff0000;stop-opacity:1;"
         offset="0.31077346"
         id="stop1120" /><stop
         style="stop-color:#000000;stop-opacity:1;"
         offset="0.66712707"
         id="stop1122" /></linearGradient><linearGradient
       inkscape:collect="always"
       id="linearGradient1063"><stop
         style="stop-color:#ffff00;stop-opacity:1;"
         offset="0.11187845"
         id="stop871" /><stop
         style="stop-color:#ffb800;stop-opacity:0.67888308;"
         offset="0.31990859"
         id="stop1059" /><stop
         style="stop-color:#ffffff;stop-opacity:0;"
         offset="1"
         id="stop1061" /></linearGradient><radialGradient
       inkscape:collect="always"
       xlink:href="#linearGradient1063"
       id="radialGradient1065"
       cx="37.954514"
       cy="12.41342"
       fx="37.954514"
       fy="12.41342"
       r="15.752029"
       gradientUnits="userSpaceOnUse" /><linearGradient
       inkscape:collect="always"
       xlink:href="#linearGradient1124"
       id="linearGradient1126"
       x1="38.894562"
       y1="2.9738836"
       x2="38.347683"
       y2="23.473251"
       gradientUnits="userSpaceOnUse" /><radialGradient
       inkscape:collect="always"
       xlink:href="#linearGradient1645"
       id="radialGradient1647"
       cx="37.221141"
       cy="11.502999"
       fx="37.221141"
       fy="11.502999"
       r="18.092702"
       gradientTransform="matrix(1,0,0,1.0000336,0,-3.860878e-4)"
       gradientUnits="userSpaceOnUse" /></defs><g
     inkscape:label="Layer 1"
     inkscape:groupmode="layer"
     id="layer1"><path
       id="path302"
       style="fill:url(#linearGradient1126);stroke-width:0.0763466;fill-opacity:1"
       d="m 41.674797,0.61727581 0.171846,0.125967 c 0.09449,0.069334 0.171757,0.1604537 0.171757,0.2024661 0,0.044542 -0.04505,0.039006 -0.108316,-0.013551 -0.07488,-0.062126 -0.04993,0.082578 0.08067,0.46780959 0.103985,0.306768 0.201946,0.7070062 0.21772,0.8895218 0.02687,0.3107453 0.206649,0.6225485 0.358955,0.6225485 0.03699,0 0.03163,-0.066465 -0.01191,-0.1476626 -0.0435,-0.081199 -0.07687,-0.210127 -0.07418,-0.2863767 0.0052,-0.1602731 0.12284,0.090194 0.178721,0.3818335 0.01768,0.091663 0.05781,0.2319557 0.08948,0.3117691 0.06274,0.1581711 -0.677335,0.12712 -0.8418,-0.035367 -0.107485,-0.1061715 -0.194623,-0.086915 -0.194623,0.042893 0,0.08095 -0.08397,0.115233 -0.286377,0.1171312 -0.157466,0.00173 -1.059282,0.00859 -2.004075,0.015139 l -1.717804,0.012197 1.297942,0.045154 c 0.713846,0.024792 -1.041021,0.052521 -3.899606,0.061447 l -5.197449,0.016275 0.03363,-0.2290584 0.03354,-0.2290517 h 5.913388 5.913374 L 41.74855,2.8272967 c -0.06898,-0.2174493 -0.493634,-1.7040593 -0.493634,-1.728272 0,-0.010628 -0.0306,-0.019435 -0.06802,-0.019435 -0.03735,0 0.02616,0.3213874 0.141118,0.7141906 l 0.208998,0.7141927 -3.786605,0.055819 c -2.60977,0.038487 -3.818755,0.082419 -3.88992,0.1414484 -0.111996,0.092906 -1.787927,0.1846353 -2.618884,0.1433014 -0.530847,-0.026441 -0.701723,-0.1664657 -0.494614,-0.4052575 0.04767,-0.054939 0.01443,-0.040114 -0.07331,0.032769 -0.303154,0.251504 -6.078244,0.1944885 -7.516344,-0.074193 L 22.053573,2.1955705 17.484991,2.1680895 c -2.512744,-0.015138 -4.550764,0.00173 -4.528917,0.036836 0.02183,0.035367 -0.07539,0.05087 -0.216086,0.034396 -0.140651,-0.016492 -0.43883,0.011295 -0.662647,0.061786 -0.534901,0.1204313 -1.336827,0.2310878 -1.647521,0.2273093 -0.136472,-0.00173 -0.248125,0.02608 -0.248125,0.061696 0,0.035616 -0.146057,0.069334 -0.3245163,0.075052 -0.5527438,0.017629 -0.596126,0.024951 -0.5544424,0.092408 0.053035,0.085876 -0.3887227,0.1819911 -0.5052891,0.1099445 -0.055549,-0.034396 -0.069586,-0.022803 -0.03683,0.030237 0.032498,0.052678 -0.029465,0.1064422 -0.1600783,0.1389403 -0.1171907,0.029108 -0.3268906,0.1166567 -0.4660666,0.1945111 -0.1391767,0.077831 -0.290511,0.1183979 -0.3362846,0.090126 -0.046711,-0.028859 -0.061528,-0.016275 -0.033886,0.028339 0.027125,0.043842 -0.063436,0.1332675 -0.2012684,0.1986468 -0.3128251,0.1484546 -0.6527671,0.5671743 -1.0453461,1.2873721 -0.37269,0.6837046 -0.374189,0.7087668 -0.03094,0.5248049 0.151284,-0.081113 0.328702,-0.1269306 0.394251,-0.1017823 0.06551,0.025131 0.09961,0.014218 0.07574,-0.024438 -0.02426,-0.039257 0.147096,-0.074182 0.388271,-0.079034 C 8.8229195,5.125429 9.5551627,5.0557874 9.9526727,4.9068977 10.183613,4.8204107 10.338241,4.7487962 10.296254,4.7477995 10.024124,4.7417435 7.6295409,4.9837141 7.5586962,5.0249125 7.5106862,5.052818 7.5314842,5.0068784 7.6049722,4.9229133 7.8117162,4.6865564 7.762633,4.6192131 7.5344312,4.8261482 L 7.3303292,5.0112896 7.5385737,4.7314557 c 0.1996569,-0.268343 0.7539254,-0.5981372 1.0052484,-0.5981372 0.065949,0 0.1020757,-0.028859 0.080333,-0.064045 -0.021762,-0.035187 0.099571,-0.1422622 0.2697033,-0.2378812 0.3206599,-0.1802293 0.7959731,-0.1814488 0.9066382,-0.00271 0.036224,0.058576 0.4738664,0.036928 1.4949554,-0.07365 1.238858,-0.1341556 4.741512,-0.3839466 5.399921,-0.3851082 0.254469,-4.338e-4 0.231728,0.1785787 -0.0734,0.5793931 -0.224455,0.2948086 -0.225901,0.41926 -0.007,0.6246201 0.271821,0.2553648 1.984677,0.939217 2.089614,0.8342801 0.02124,-0.021153 -0.09263,-0.078948 -0.252917,-0.128474 -0.565312,-0.1746374 -1.241233,-0.4815182 -1.201621,-0.5456208 0.02215,-0.035704 -0.0043,-0.048096 -0.05928,-0.027472 -0.128589,0.048444 -0.596058,-0.2365999 -0.594541,-0.362552 0.0017,-0.1089051 0.148566,-0.3625245 0.150374,-0.2590181 6.33e-4,0.036655 0.05833,0.019435 0.128138,-0.038124 0.09939,-0.082058 0.133946,-0.083978 0.15921,-0.00881 0.02147,0.063865 0.07887,0.038306 0.171845,-0.07634 0.07677,-0.094714 0.163822,-0.1480469 0.193426,-0.1185548 0.02963,0.029469 -0.0017,0.1091992 -0.06976,0.1771781 -0.06802,0.068024 -0.123573,0.1919123 -0.123573,0.275371 0,0.1010634 -0.03189,0.1326576 -0.09546,0.094487 -0.06561,-0.039436 -0.06301,-0.017394 0.0086,0.070985 0.05729,0.070628 0.129967,0.1124399 0.161495,0.092951 0.03155,-0.019503 0.225178,0.044717 0.430326,0.1426411 1.698575,0.8109219 3.57051,1.0728955 7.687101,1.0757552 2.85582,0.00173 3.036603,0.01014 3.003758,0.1356672 -0.0487,0.1860319 0.08215,0.1684253 0.141678,-0.019074 0.04533,-0.1429099 0.115532,-0.1526696 1.094387,-0.1526696 3.619468,0 9.328045,-0.7256397 9.891891,-1.2574119 0.272813,-0.2573028 0.945229,-0.5072045 1.64905,-0.6127404 0.327089,-0.04904 0.335694,-0.045673 0.178053,0.069493 -0.09107,0.066555 -0.212455,0.10294 -0.269705,0.08095 -0.0572,-0.021921 -0.23886,0.007 -0.403732,0.063865 l -0.299775,0.103844 0.410926,0.048611 c 0.226017,0.02678 0.435449,0.088386 0.465416,0.1368599 0.0598,0.096814 0.224252,0.02852 0.224252,-0.093177 0,-0.041944 -0.03439,-0.055029 -0.07643,-0.029131 -0.04195,0.025921 -0.07625,0.010844 -0.07625,-0.033718 0,-0.044452 0.09442,-0.080431 0.209878,-0.079731 0.163618,8.655e-4 0.184704,0.017394 0.09545,0.075232 -0.185312,0.1197528 0.376191,0.0939 0.808556,-0.037267 0.464768,-0.1409955 0.453188,-0.141425 0.326909,0.01153 -0.176123,0.2135169 0.157971,0.00429 0.445795,-0.2796174 0.150934,-0.1486802 0.297662,-0.2279082 0.38173,-0.2060593 0.106367,0.027639 0.09863,0.037424 -0.03519,0.044362 -0.09449,0.0052 -0.171846,0.046962 -0.171846,0.093492 0,0.049831 0.07124,0.066736 0.173146,0.041154 0.09521,-0.02391 0.358618,-0.083188 0.585388,-0.1318655 0.876378,-0.1879574 0.951521,-0.2762637 0.287791,-0.3384589 -0.562988,-0.052768 -0.588224,-0.063345 -0.588224,-0.2473614 V 2.9671583 l 2.614857,0.035436 c 2.342214,0.031639 2.815282,0.00339 1.912104,-0.1136741 -1.709398,-0.2219013 -1.722741,-0.353781 -0.04576,-0.4522253 0.66366,-0.039006 1.239318,-0.1026223 1.279207,-0.141562 0.03986,-0.038916 0.325304,-0.070803 0.634319,-0.070803 0.309002,0 0.5453,-0.02678 0.525019,-0.059616 -0.02034,-0.032837 0.209494,-0.035006 0.510741,-0.0052 0.724955,0.072793 1.134476,0.065853 0.700463,-0.011981 -0.205516,-0.036836 0.01281,-0.058329 0.667986,-0.065606 0.667292,-0.0079 0.973436,0.015824 0.973436,0.07374 0,0.046442 -0.04975,0.065424 -0.110624,0.042034 -0.07393,-0.028339 -0.09659,-0.0061 -0.0682,0.068114 0.07097,0.1850648 0.255204,0.1271886 0.255204,-0.08025 V 1.9946508 l -1.889546,0.00904 c -1.039269,0.0052 -1.786566,0.035006 -1.660597,0.066736 0.125961,0.031706 -0.698585,0.05347 -1.832334,0.048272 -2.042145,-0.00927 -2.064945,-0.0079 -2.443113,0.1776076 -0.351926,0.1724994 -0.486274,0.1894264 -1.721406,0.2159803 L 42.812835,2.5410547 42.569616,1.9052112 C 42.273053,1.1297844 42.08188,0.80906371 41.850828,0.69945541 Z M 54.63017,2.000872 c -0.27994,0.0052 -0.279315,0.0061 0.100015,0.1099444 0.605226,0.1662402 2.608426,0.875144 2.476573,0.8764525 C 57.141148,2.9879288 56.78565,2.8864094 56.41672,2.7617066 55.281421,2.3779499 54.669315,2.2200812 54.765388,2.3358499 c 0.159089,0.1916862 1.401604,0.6775256 1.720861,0.6728904 0.296689,-0.00429 0.298248,-0.00271 0.05424,0.044881 -0.430043,0.084407 -0.270138,0.1819234 0.294981,0.1797999 0.297063,-8.679e-4 0.520376,0.017845 0.496137,0.042034 -0.07279,0.072791 0.19833,0.3236405 0.349796,0.3236405 0.07746,0 0.141804,0.042983 0.142869,0.095459 8.66e-4,0.052521 0.166235,0.2068278 0.367005,0.3429311 0.483926,0.3280519 1.994743,1.8850474 2.339052,2.4105369 0.251088,0.3832111 0.271919,0.2070921 0.02764,-0.2339648 -0.305007,-0.5507769 -0.287624,-0.5320757 -0.372032,-0.3986105 -0.03908,0.061788 -0.07151,0.089294 -0.07208,0.061268 -5.63e-4,-0.028078 -0.02418,-0.1109603 -0.05225,-0.1842735 -0.03675,-0.09569 -0.02383,-0.1164546 0.04576,-0.073403 0.07652,0.047315 0.0786,0.025824 0.0101,-0.1019891 -0.104905,-0.1960253 -0.169086,-0.212473 -0.109939,-0.028251 0.02806,0.087484 -0.01155,0.067683 -0.11519,-0.057283 -0.19112,-0.2307325 -0.211029,-0.3643625 -0.03268,-0.2192505 0.09525,0.077475 0.08276,0.022284 -0.04794,-0.2120572 -0.257407,-0.4614909 -0.984197,-1.1946947 -1.542263,-1.555877 -0.597496,-0.3867126 -0.353331,-0.3299322 0.680412,0.1583299 1.366968,0.6456518 2.502812,1.9908764 2.994721,3.5466503 0.05314,0.1679633 0.123092,0.3397337 0.155499,0.3817205 0.08224,0.106601 0.244397,0.7329621 0.200928,0.7764136 -0.0572,0.057196 -0.809777,-0.5109825 -0.899982,-0.6795364 -0.09805,-0.1832251 -0.02616,-0.1498621 0.413759,0.1923325 0.376676,0.2929891 0.396305,0.25459 0.167822,-0.3284332 -0.316301,-0.8071079 -0.376772,-0.9185269 -0.477618,-0.8798245 -0.06873,0.026344 -0.08277,-0.01734 -0.04904,-0.1518035 0.03015,-0.120103 0.01498,-0.188841 -0.04177,-0.188841 -0.04897,0 -0.07028,0.030418 -0.04733,0.067683 0.02295,0.037263 -0.0061,0.107164 -0.06377,0.1553888 -0.08354,0.069327 -0.103317,0.059102 -0.09458,-0.048615 0.0061,-0.074962 0.06257,-0.1781218 0.125546,-0.2292767 0.1,-0.081201 0.0974,-0.093341 -0.02079,-0.095457 -0.07566,-0.00173 -0.167624,0.081896 -0.208137,0.1884071 -0.03995,0.1049807 -0.116362,0.1882354 -0.169879,0.1849246 -0.07723,-0.0052 -0.07746,-0.014128 -0.0017,-0.044802 0.05276,-0.021221 0.07557,-0.07158 0.05069,-0.1118102 -0.02488,-0.04021 -0.0034,-0.1232316 0.04706,-0.1843776 0.06032,-0.072708 0.06387,-0.1111498 0.01046,-0.1111498 -0.04505,0 -0.116958,0.060141 -0.159757,0.1336049 -0.048,0.082414 -0.0786,0.095335 -0.08006,0.033626 -8.68e-4,-0.054942 -0.03553,-0.079467 -0.07609,-0.054423 -0.06829,0.042204 -0.03387,0.1503294 0.25597,0.8033301 0.04662,0.1049807 0.127676,0.2182538 0.180219,0.2518344 0.05261,0.033626 0.09558,0.1796302 0.09558,0.3245161 0,0.1448784 0.02746,0.2633773 0.06102,0.2633773 0.03354,0 0.05287,0.1289082 0.04289,0.2863769 l -0.01808,0.2862642 0.05296,-0.2671991 c 0.03457,-0.1747315 0.0741,-0.2341381 0.114197,-0.1717326 0.03372,0.052516 0.04152,0.1274159 0.01732,0.166509 -0.02418,0.039082 -0.0087,0.09296 0.035,0.1197547 0.04332,0.026778 0.059,0.080681 0.03484,0.1197547 -0.02418,0.039082 -0.0079,0.071061 0.0369,0.071061 0.04446,0 0.08085,0.066728 0.08085,0.1481985 0,0.081461 0.03434,0.1694284 0.07625,0.1953835 0.116236,0.07184 0.09112,0.1917789 -0.03042,0.1451473 -0.05875,-0.022531 -0.13464,0.00433 -0.168598,0.058842 -0.04446,0.072015 -0.07652,0.046796 -0.11463,-0.090223 l -0.05285,-0.1900455 -0.0079,0.2018129 c -0.0061,0.1652604 0.09778,0.2825813 0.573515,0.6469524 l 0.581136,0.4451468 -0.02835,4.255184 c -0.02329,3.503615 -0.04706,4.272663 -0.134261,4.353794 -0.05824,0.05424 -0.08414,0.05945 -0.05745,0.01173 0.02712,-0.04845 -0.01853,-0.104345 -0.103299,-0.126503 -0.0898,-0.02347 -0.1518,-0.0017 -0.1518,0.05276 0,0.05086 -0.103642,0.255759 -0.230248,0.455387 l -0.230152,0.362979 0.338027,-0.232537 c 0.185924,-0.127911 0.358306,-0.275994 0.383038,-0.328987 0.09785,-0.209745 -0.04601,0.495065 -0.193651,0.948591 -0.712435,2.188729 -1.884106,3.472719 -3.890789,4.263676 -0.451516,0.177963 -0.431142,0.06759 0.03077,-0.166488 0.382275,-0.193744 1.364395,-1.168369 1.539099,-1.527331 l 0.124338,-0.255536 -0.20127,0.229051 c -0.110697,0.125962 -0.370097,0.424151 -0.576452,0.662655 -0.206352,0.238506 -0.486945,0.512717 -0.623529,0.609257 -0.228201,0.161291 -0.219936,0.141623 0.102108,-0.242788 0.192748,-0.230064 0.497214,-0.615503 0.676599,-0.856503 0.179388,-0.241022 0.362048,-0.416074 0.405804,-0.389027 0.04628,0.02858 0.05676,0.01227 0.02504,-0.03901 -0.02999,-0.04845 -0.02669,-0.0884 0.007,-0.08859 0.03396,-2.83e-4 0.123201,-0.111906 0.19833,-0.248125 0.08984,-0.162933 -0.07991,-0.02495 -0.496252,0.403411 -0.348035,0.358117 -0.847526,0.818446 -1.109969,1.022902 -0.262439,0.204455 -0.477175,0.420199 -0.477175,0.479465 0,0.05945 -0.03509,0.08616 -0.07789,0.05962 -0.0428,-0.02651 -0.18002,0.03778 -0.304793,0.142742 -0.193969,0.163239 -0.207529,0.196748 -0.09383,0.231781 0.07313,0.02261 -0.130599,0.02391 -0.452663,0.0027 -0.337036,-0.02192 -0.6048,-0.007 -0.630936,0.03535 -0.05763,0.09325 0.127477,0.149544 0.582771,0.177169 0.489336,0.02972 0.40257,0.08397 -0.814554,0.50911 -0.579961,0.202601 -1.023801,0.384242 -0.986399,0.403618 0.193766,0.100431 1.319269,0.0043 1.719995,-0.147216 0.236772,-0.08941 0.451517,-0.141606 0.477175,-0.11593 0.02566,0.02566 0.04662,0.0025 0.04662,-0.0513 0,-0.06041 0.05868,-0.08267 0.152883,-0.05806 0.08406,0.02192 0.135723,0.01263 0.114955,-0.02102 -0.02079,-0.03363 0.05658,-0.08441 0.171738,-0.112772 0.562744,-0.138755 1.73321,-0.762459 1.658309,-0.883637 -0.02057,-0.03329 0.07991,-0.133017 0.22328,-0.221652 0.363757,-0.224816 1.132657,-1.064083 1.550541,-1.692525 0.355157,-0.534111 0.562778,-0.686858 0.253576,-0.186556 -0.0922,0.149184 -0.148336,0.271229 -0.124771,0.271229 0.02356,0 0.140884,-0.171702 0.26077,-0.381608 0.119863,-0.209902 0.2427,-0.35696 0.272858,-0.326804 0.03008,0.03015 0.0299,-0.0097 -2.78e-4,-0.08894 -0.03571,-0.09309 -0.02669,-0.126178 0.02548,-0.09392 0.04437,0.02739 0.07912,0.007 0.07732,-0.04482 -0.0096,-0.261219 0.02696,-0.366918 0.108767,-0.316344 0.05521,0.03414 0.06741,0.02079 0.03259,-0.03553 -0.05693,-0.09209 0.165134,-0.776822 0.277215,-0.854876 0.514998,-0.3586 0.639873,-8.748649 0.170656,-11.4671594 C 62.41275,7.2915698 61.670027,5.3698127 61.380756,5.1859374 61.333606,5.1559527 61.294456,5.1044764 61.293376,5.0714153 61.291676,5.0059012 61.054929,4.7587283 60.65165,4.4005892 60.43472,4.2079537 60.4561,4.2539425 60.786345,4.6903447 61.157371,5.1806676 61.529351,5.7824961 61.220693,5.3930888 60.456733,4.4292382 60.171094,4.1128181 59.824139,3.8460416 59.600069,3.6737677 59.423171,3.5047307 59.431076,3.4704228 59.450296,3.3867158 58.322952,2.7893538 57.921622,2.6705771 57.74586,2.6185761 57.617098,2.551638 57.63547,2.521942 57.65377,2.492224 57.6001,2.485896 57.51604,2.507922 c -0.08545,0.022374 -0.152774,0.00271 -0.152774,-0.045244 0,-0.046893 -0.02584,-0.07964 -0.05729,-0.072791 -0.07894,0.017177 -0.460683,-0.08147 -0.78786,-0.2037768 -0.166956,-0.062396 -0.515671,-0.094216 -0.900087,-0.082058 -0.345158,0.010844 -0.645425,-0.00904 -0.667229,-0.044203 -0.02169,-0.035277 -0.166415,-0.061967 -0.321355,-0.059188 z M 19.426767,2.5112834 c 0.755834,0.0079 1.825548,0.05521 1.925398,0.1084306 0.220093,0.1173116 0.108385,0.24693 -0.297157,0.3448905 -0.353194,0.085266 -0.324422,0.0899 0.483494,0.07634 0.472478,-0.0079 0.858982,0.00994 0.858905,0.039956 -8.7e-5,0.029898 0.506632,0.039346 1.125992,0.020792 0.619359,-0.018531 2.275296,-0.053041 3.679821,-0.076701 1.755631,-0.029627 2.590729,-0.070803 2.672165,-0.13164 0.09875,-0.073832 0.102559,-0.070712 0.02295,0.018531 -0.05253,0.058849 -0.09545,0.1791214 -0.09545,0.267303 0,0.088182 -0.04125,0.2015394 -0.09164,0.251938 -0.111978,0.1119797 -1.00776,0.1265336 -0.938994,0.015138 0.03033,-0.049131 -0.233361,-0.074352 -0.739905,-0.070962 -0.510818,0.00339 -0.733526,0.028339 -0.634431,0.070962 0.09253,0.039775 -0.437598,0.067775 -1.345561,0.071052 -0.824068,0.00271 -1.614226,0.025402 -1.75595,0.049921 -0.195144,0.033808 -0.229919,0.024792 -0.143193,-0.036995 0.08563,-0.061018 -0.01083,-0.079301 -0.381721,-0.072701 -0.432922,0.0079 -0.462168,0.016726 -0.229052,0.070803 0.154886,0.035865 -0.326484,0.049311 -1.14517,0.032069 -0.824961,-0.017394 -1.33304,-0.00271 -1.22156,0.034667 0.113944,0.038487 -0.19372,0.05026 -0.76345,0.029288 -0.524884,-0.019435 -1.366586,7.706e-4 -1.870473,0.044724 -0.503885,0.043932 -1.052175,0.07869 -1.218284,0.077311 -0.227128,-0.00173 -0.335471,0.040995 -0.437192,0.1731544 -0.07435,0.096679 -0.136046,0.134895 -0.136974,0.084837 -8.67e-4,-0.050011 0.02999,-0.1105092 0.06872,-0.1344656 0.03874,-0.023909 0.09295,-0.146284 0.120522,-0.2717663 0.03615,-0.16445 0.09642,-0.2300872 0.215876,-0.2350432 1.825106,-0.07582 3.85439,-0.2046355 3.448579,-0.2189408 -0.437869,-0.015367 -0.489612,-0.029379 -0.286698,-0.07756 0.50951,-0.120951 0.579357,-0.393124 0.09589,-0.3736525 -0.12834,0.0052 -0.147167,0.019209 -0.05729,0.042644 0.327446,0.085539 0.08172,0.1764311 -0.477175,0.1764311 -0.551289,0 -0.76994,-0.07573 -0.515324,-0.1784881 0.05252,-0.021243 0.06109,-0.040046 0.01898,-0.042034 -0.536884,-0.025311 -0.339006,0.3262845 0.216296,0.3843373 0.324222,0.033877 0.217043,0.041944 -0.344126,0.02608 -0.96191,-0.0273 -1.568063,-0.4899501 -0.650341,-0.4963638 0.100792,-6.848e-4 0.13234,-0.02357 0.07921,-0.057288 -0.04983,-0.031639 0.290666,-0.041514 0.744159,-0.036928 z m 31.039427,1.0133177 c -1.763331,0.016275 -2.643878,0.2663402 -3.097915,0.817168 -0.19476,0.2362969 -0.22224,0.2462887 -0.454844,0.165199 C 46.750989,4.4503801 46.306554,4.4350341 45.620943,4.4624261 44.65054,4.5011601 44.04085,4.586975 42.781829,4.8622417 42.508892,4.9219517 42.010726,5.0214702 41.674797,5.0835532 41.338876,5.1456882 40.188031,5.3688555 39.117268,5.579587 35.57099,6.2775125 35.211661,6.3346562 33.124012,6.5327525 30.774967,6.7556506 26.817826,6.8770012 24.076966,6.8100824 23.354656,6.7925001 22.758251,6.7548794 20.94669,6.6130604 19.886759,6.5301259 18.017337,6.2715503 16.556705,6.005989 13.192951,5.3944115 12.302544,5.306798 11.95151,5.5526701 c -0.139505,0.097718 -0.195123,0.1027884 -0.28746,0.026172 -0.08671,-0.071929 -0.135961,-0.073574 -0.202907,-0.00695 -0.04861,0.048616 -0.144099,0.088377 -0.212274,0.088377 -0.271748,0 -0.864616,2.37375 -0.651094,2.6069005 0.05754,0.062828 0.0533,0.072448 -0.01516,0.033797 -0.05252,-0.029638 -0.09546,-0.017574 -0.09546,0.026952 0,0.2946009 0.216805,-0.0026 0.334213,-0.4586575 0.07644,-0.2967673 0.155919,-0.5226382 0.17664,-0.5019176 0.0207,0.020701 -0.01465,0.2205928 -0.07877,0.4441588 -0.157633,0.549711 -0.283118,1.2688513 -0.373114,2.0970269 h 0.558255 c 0.139982,-1.8790766 0.378324,-3.2974425 0.729228,-3.4862834 0.287096,-0.1545065 0.857726,-0.2174042 1.544326,-0.2150042 2.059797,0.00695 5.164215,0.6019582 4.794799,1.0729213 -0.134917,0.1720213 -0.215596,1.215997 -0.256184,2.628366 h 0.635296 c 0.05616,-0.8517732 0.122849,-1.6813617 0.1932,-2.2807463 0.08138,-0.6933328 0.0979,-0.7407791 0.247364,-0.7102661 0.08809,0.017935 0.366251,0.055549 0.618189,0.083455 1.526466,0.1693238 3.431167,0.2356372 6.336847,0.2206628 4.123903,-0.021221 6.359187,-0.1420276 9.264874,-0.5007219 0.686678,-0.084754 1.262829,-0.1398353 1.280291,-0.1223728 0.103859,0.1038619 0.324854,1.694569 0.503441,3.3099739 h 12.3738 C 49.041851,7.635066 48.427909,5.7331195 47.581091,4.8863031 L 47.271724,4.5769352 47.486619,4.3525616 c 0.776251,-0.8102279 3.139419,-0.9572469 7.777977,-0.4840473 1.039368,0.1060362 1.529881,0.1310986 1.374221,0.070283 -0.163799,-0.063955 -2.524989,-0.2685686 -4.098155,-0.3551325 -0.800877,-0.044115 -1.486688,-0.064747 -2.07447,-0.059278 z M 10.683647,4.9020968 c -0.05529,0.00779 -0.145191,0.042464 -0.260985,0.1059153 C 9.6229017,5.4460184 8.8174656,5.7534538 8.9248634,5.5796742 9.0198594,5.4259659 8.7095564,5.6296772 8.4918142,5.86398 8.0466587,6.3429418 7.9301616,6.8401887 7.8239334,8.7144214 7.5839283,12.948972 7.8126794,20.319698 8.213176,21.254943 c 0.2144142,0.500686 1.2850998,1.297716 1.7123602,1.274735 0.035964,-0.0017 -0.1750707,-0.120332 -0.4690043,-0.263056 -0.5197441,-0.252363 -1.1077502,-0.677033 -1.0307528,-0.74448 0.1080481,-0.09467 1.5933069,0.337583 1.5497771,0.451023 -0.044282,0.115352 -0.353573,0.108243 -0.760503,-0.01732 -0.1638151,-0.05059 0.4348344,0.254442 1.0504768,0.535255 0.554182,0.252787 0.642792,0.245933 0.36853,-0.02835 -0.239979,-0.239979 -0.294661,-0.410129 -0.10875,-0.338791 0.063,0.02418 0.114531,0.0096 0.114531,-0.0325 0,-0.04204 -0.04498,-0.09363 -0.10004,-0.114739 -0.05503,-0.02124 -0.144124,-0.18547 -0.197991,-0.36527 -0.110917,-0.370188 -0.3890262,-0.921615 -0.3890262,-0.771284 0,0.05433 -0.035185,0.07705 -0.078255,0.05045 -0.042983,-0.0266 -0.073314,-0.02012 -0.067335,0.01462 0.031111,0.178991 -0.028686,0.158187 -0.2413655,-0.08407 C 9.4369815,20.6744 9.2181912,20.513385 9.0797085,20.463313 8.8913625,20.395203 8.8372334,20.33672 8.8648265,20.231201 c 0.047575,-0.181992 0.2239986,-0.178468 0.5343894,0.01083 0.136463,0.08318 0.2481252,0.134117 0.2481252,0.113114 0,-0.250904 -0.9062046,-0.434034 -0.9685305,-0.195709 -0.020972,0.08008 -0.1106571,0.164665 -0.1994128,0.187867 -0.30669,0.08017 -0.261809,0.0027 0.1974558,-0.342054 0.1653994,-0.124085 0.1937291,-0.182714 0.1270533,-0.263056 -0.047142,-0.05684 -0.05919,-0.14783 -0.026518,-0.20215 0.038218,-0.06362 0.00954,-0.05833 -0.080768,0.01498 -0.1301279,0.105735 -0.136066,0.100971 -0.082847,-0.0668 0.036657,-0.115587 0.02955,-0.163546 -0.019842,-0.133071 -0.1476084,0.09123 -0.2063893,-1.580177 -0.2063893,-5.86903 0,-4.3709444 0.045324,-5.4588665 0.2274221,-5.4588665 0.1262305,0 0.2022829,-0.1909132 0.140355,-0.3522992 -0.036224,-0.094371 -0.013262,-0.1127538 0.097857,-0.078168 0.079814,0.024871 0.1966828,0.00945 0.2596769,-0.034317 0.090015,-0.062595 0.078774,-0.069615 -0.052602,-0.032785 -0.2988905,0.083799 -0.3851087,-0.2313651 -0.091315,-0.3337798 0.1295469,-0.04515 0.3709052,-0.2288002 0.536348,-0.4079785 0.1654517,-0.1791954 0.2764109,-0.259963 0.2466,-0.1795869 -0.037698,0.1016534 -0.026952,0.129278 0.035185,0.09088 0.050437,-0.031199 0.089241,-0.012648 0.089241,0.042635 0,0.179587 0.2074714,-0.1978624 0.3527414,-0.6417266 0.07895,-0.241149 0.186484,-0.4387513 0.238965,-0.4390459 0.05252,-2.774e-4 0.09546,-0.034837 0.09546,-0.076867 0,-0.042031 -0.05044,-0.076347 -0.11213,-0.076347 -0.159403,0 -0.06586,-0.2295193 0.178813,-0.4386039 0.141447,-0.1208915 0.145546,-0.1806443 0.05338,-0.1671604 z m 8.359329,2.1733053 c -0.09525,0.00346 -0.157675,0.015499 -0.157675,0.037523 0,0.039777 -0.05426,0.6311108 -0.120747,1.3140789 -0.03831,0.3938703 -0.07964,0.9435812 -0.114193,1.4817753 h 1.797027 c -0.02323,-0.05841 -0.02963,-0.1379029 -0.0131,-0.2013814 0.02192,-0.084234 0.007,-0.1531027 -0.03372,-0.1531027 -0.04056,0 -0.05164,-0.035964 -0.02452,-0.079727 0.02712,-0.043849 0.007,-0.1311528 -0.04567,-0.1940749 -0.07193,-0.086661 -0.07349,-0.1358565 -0.007,-0.2027935 0.106782,-0.1067923 0.117923,-0.2378646 0.01492,-0.174136 -0.04048,0.024958 -0.02608,-0.1122252 0.03189,-0.3050089 0.09772,-0.3247153 0.09611,-0.3433472 -0.02192,-0.2522676 -0.117877,0.090959 -0.118216,0.08699 -0.0052,-0.053035 0.221336,-0.2746432 0.273604,-0.3988358 0.112905,-0.2682823 -0.124861,0.1014279 -0.135301,0.097823 -0.109403,-0.03813 0.02375,-0.1248935 0.112272,-0.1582144 0.524145,-0.1972389 0.754135,-0.071409 1.086519,-0.2048388 0.533741,-0.2142333 -0.539269,-0.00918 -1.39126,-0.1466215 -1.484938,-0.2395199 -0.04567,-0.045323 -0.03302,-0.071929 0.03433,-0.071929 0.06533,0 0.07869,-0.025824 0.03431,-0.066469 -0.07851,-0.072015 -0.659794,-0.1330989 -0.945531,-0.1219372 z m 42.01187,0.2135825 c -0.04637,-0.0052 -0.01967,0.2983188 0.08555,1.0494886 0.236521,1.6873498 0.230612,9.2310498 -0.0087,11.1790468 -0.08778,0.71447 0.03475,0.308685 0.161381,-0.534502 0.09489,-0.631934 0.137491,-1.657086 0.171954,-4.141736 0.02522,-1.816101 0.06622,-3.302053 0.0911,-3.302131 0.02495,-7.8e-5 0.03345,0.210091 0.01898,0.467046 -0.02124,0.375724 -0.0061,0.45507 0.07634,0.40537 0.08295,-0.04992 0.08459,-0.03952 0.0088,0.0539 -0.115406,0.142659 -0.117229,1.190129 -0.0017,1.261225 0.04601,0.02843 0.05909,0.01422 0.03008,-0.03267 -0.02817,-0.04558 -0.02192,-0.101045 0.01407,-0.123249 0.03596,-0.02219 0.05659,0.164194 0.04601,0.4142 -0.01064,0.249997 0.01191,0.473944 0.05045,0.497663 0.07106,0.04394 0.103822,-0.11089 0.08163,-0.385759 -0.0092,-0.113524 0.0052,-0.12616 0.05469,-0.04914 0.08304,0.128328 0.161851,0.0155 0.128705,-0.184264 -0.01353,-0.08155 -0.06882,-0.137851 -0.122804,-0.124989 -0.07973,0.01898 -0.07982,8.66e-4 2.78e-4,-0.09546 0.08076,-0.09728 0.08049,-0.118777 -0.0017,-0.118777 -0.06257,0 -0.04446,-0.04524 0.04792,-0.120199 0.08154,-0.06612 0.09938,-0.09485 0.03977,-0.06387 -0.07878,0.04099 -0.09532,0.02235 -0.06057,-0.0682 0.02625,-0.06855 0.01335,-0.145883 -0.02894,-0.17196 -0.05105,-0.03154 -0.05009,-0.07947 0.0027,-0.143075 0.04368,-0.0526 0.05389,-0.121125 0.02281,-0.152228 -0.03112,-0.03111 -0.06187,-0.165374 -0.06846,-0.298362 -0.007,-0.132999 -0.01877,-0.241808 -0.02712,-0.241808 -0.0087,0 -0.02773,-0.206163 -0.04298,-0.458111 -0.03179,-0.526062 -0.05305,-0.65184 -0.13141,-0.777289 -0.03104,-0.04957 -0.02124,-0.111722 0.02147,-0.138172 0.05244,-0.03241 0.05087,-0.09841 -0.0043,-0.202143 -0.04531,-0.08467 -0.06371,-0.202907 -0.04072,-0.262615 0.02288,-0.05971 0.007,-0.108533 -0.03562,-0.108533 -0.04255,0 -0.07176,-0.04298 -0.0649,-0.09546 0.007,-0.05252 0.0017,-0.147 -0.01155,-0.209987 C 61.54489,9.949236 61.51308,10.2585 61.4876,10.6994 l -0.04644,0.801697 -0.01498,-0.984979 C 61.410653,9.4813094 61.2101,7.5354956 61.09915,7.3401811 61.08085,7.3077691 61.06622,7.2901791 61.05556,7.2889651 Z m -4.455041,0.8567216 c -0.04845,0.00173 -0.08923,0.013948 -0.11887,0.038562 -0.06169,0.051217 -0.08318,0.8594689 -0.07488,1.7244578 h 1.320934 c -0.0092,-0.2035034 -0.01624,-0.397397 -0.01714,-0.5571637 -8.66e-4,-0.2164594 -0.03113,-0.3755849 -0.06665,-0.3536077 -0.03544,0.021921 -0.05243,-0.023226 -0.0376,-0.1004734 0.05216,-0.2708995 -0.666294,-0.76455 -1.005691,-0.7517851 z M 10.532833,17.058931 c 0.07288,0.817266 0.159852,1.549031 0.256617,2.022707 0.13642,0.667768 0.17014,1.086058 0.04619,0.572971 -0.16188,-0.670204 -0.21243,-0.8064 -0.266653,-0.718663 -0.05659,0.09155 -0.05174,0.228755 0.03232,0.921777 0.06083,0.501232 0.158493,0.913925 0.384884,1.625727 0.07687,0.241617 0.184811,0.438931 0.240169,0.438931 0.122884,0 0.128456,0.05693 -0.05208,-0.534389 -0.268351,-0.878862 -0.09425,-0.935772 0.316778,-0.103533 l 0.2757,0.558152 -0.238973,0.153117 c -0.133302,0.08536 -0.187429,0.153785 -0.122373,0.154416 0.06413,5.63e-4 0.192124,-0.05157 0.284409,-0.116164 0.15213,-0.106547 0.186407,-0.105374 0.367665,0.01335 0.33936,0.222354 0.817109,0.184816 3.201336,-0.251827 2.029865,-0.371736 3.963729,-0.692396 4.504394,-0.746776 0.251947,-0.02532 0.71582,-0.07842 1.030751,-0.11813 2.134586,-0.268749 5.889249,-0.365903 9.047037,-0.234068 2.507119,0.104689 3.16891,0.154344 4.924373,0.369632 0.56687,0.06949 1.173403,0.127441 1.347851,0.128704 0.174444,8.66e-4 0.304827,0.02237 0.289645,0.0469 -0.01516,0.02461 0.20285,0.08578 0.48448,0.135994 0.281638,0.05027 1.405298,0.263067 2.497051,0.472931 3.65852,0.703289 4.34875,0.832414 4.924372,0.921456 0.800532,0.123851 2.615748,0.131213 2.760765,0.01137 0.09302,-0.07696 0.162536,-0.0409 0.395889,0.205403 0.223913,0.236312 0.527969,0.41549 0.943572,0.543332 l -0.231451,-0.117247 c -0.550213,-0.278794 -0.981157,-0.766473 -0.743829,-0.841798 0.371417,-0.117896 0.913086,-1.072852 1.351334,-2.382528 0.307669,-0.919455 0.52737,-1.990341 0.667882,-3.131592 H 37.085902 c -0.09294,1.116198 -0.230229,2.259679 -0.388043,3.133023 l -0.121938,0.674527 -0.237232,-0.04204 c -3.424458,-0.607001 -13.668046,-0.749911 -17.169035,-0.239579 -0.195845,0.02852 -0.298691,0.01107 -0.320807,-0.0546 -0.106442,-0.315997 -0.25453,-1.91518 -0.33748,-3.471361 h -0.538205 c 0.0052,0.138411 0.0088,0.295632 0.01469,0.428473 0.02547,0.02409 0.02592,0.05157 0.0034,0.08697 0.0052,0.112664 0.01018,0.223054 0.01559,0.330938 0.113765,0.248081 0.134172,0.848558 0.09013,1.404413 0.05078,0.588709 0.108385,0.969061 0.17076,1.030207 0.07496,0.07349 -0.107797,0.174155 -0.452011,0.283977 0.028,0.0025 0.05971,0.0043 0.09577,0.0052 0.217495,0.0043 0.227813,0.01281 0.08371,0.07115 -0.08086,0.03259 -0.239321,0.03033 -0.432937,-0.0017 -1.199298,0.328598 -3.609004,0.703013 -5.005228,0.692831 -0.520619,0.208476 -0.618823,0.270501 -0.581247,0.368427 0.123474,0.32176 -0.150495,-0.07367 -0.365593,-0.506166 -0.0052,-0.0027 -0.01048,-0.0052 -0.01516,-0.0079 -0.08723,-0.05287 -0.16605,-0.237207 -0.236244,-0.523817 l -0.06248,-0.135344 -2.25e-4,-0.159523 c -0.140697,-0.756775 -0.239836,-1.967928 -0.294406,-3.36773 z m 37.876224,6.473163 0.213359,0.108099 0.226121,-8.41e-4 c -0.158765,-0.0306 -0.305417,-0.06613 -0.43948,-0.107341 z m 0.43948,0.107341 c 0.883586,0.170096 2.165306,0.178107 4.049331,0.04774 1.711373,-0.11842 3.65346,-0.319119 3.723732,-0.384781 0.0325,-0.03042 -0.166992,-0.028 -0.443292,0.0052 -1.89608,0.228263 -3.39386,0.318824 -5.380076,0.325384 z M 18.666594,17.058931 c 0.0079,0.133053 0.01739,0.286758 0.02339,0.384016 0.0325,0.532821 0.121945,1.448931 0.161606,1.654602 0.0122,0.06301 0.02739,0.234753 0.03388,0.381719 0.007,0.146964 0.02911,0.224342 0.05035,0.171846 0.02124,-0.05252 0.07202,-0.09547 0.112996,-0.09547 0.041,0 0.05442,0.03259 0.02972,0.07246 -0.02461,0.03986 0.02479,0.109813 0.109944,0.15539 0.08518,0.04558 0.15485,0.05772 0.15485,0.02678 0,-0.03085 0.0409,-0.01534 0.09087,0.03466 0.10816,0.108152 0.154714,0.340625 0.05598,0.279616 -0.03788,-0.02338 -0.04845,0.01065 -0.02357,0.07548 0.02963,0.07732 -0.01673,0.144077 -0.134466,0.193652 -0.170262,0.07167 -0.167685,0.07468 0.04922,0.05772 0.158104,-0.01245 0.221472,-0.05337 0.204545,-0.132403 -0.01966,-0.09182 -0.0052,-0.09559 0.07261,-0.01898 0.05338,0.05252 0.253317,0.09139 0.444377,0.08648 0.191053,-0.0052 0.278715,-0.02541 0.194737,-0.04558 -0.461681,-0.111058 -0.152612,-0.228332 0.992502,-0.376711 0.355037,-0.04601 0.40229,-0.06543 0.209991,-0.08621 -0.136475,-0.01462 -0.248125,-0.05893 -0.248125,-0.09828 0,-0.03935 -0.116296,-0.07151 -0.258368,-0.07151 -0.194172,0 -0.26822,-0.03796 -0.298257,-0.152774 -0.02391,-0.09139 -0.009,-0.133684 0.0369,-0.105266 0.04472,0.02764 0.04081,-0.01967 -0.009,-0.11288 -0.04723,-0.08818 -0.06405,-0.246896 -0.03751,-0.352732 0.03311,-0.131736 0.01718,-0.192456 -0.05087,-0.192456 -0.0591,0 -0.03944,-0.04531 0.04897,-0.11214 0.08154,-0.0616 0.107415,-0.113277 0.05754,-0.11454 -0.04983,-8.68e-4 -0.09241,-0.06249 -0.09449,-0.135994 -0.0017,-0.07349 -0.007,-0.185134 -0.01084,-0.248125 -0.0043,-0.06301 0.01084,-0.191913 0.03268,-0.286378 0.02192,-0.09449 0.0061,-0.171756 -0.03467,-0.171756 -0.04488,0 -0.04011,-0.06465 0.01198,-0.161922 0.06093,-0.113801 0.0617,-0.146423 0.0027,-0.109957 -0.05268,0.03259 -0.08398,-0.02088 -0.08398,-0.1435 0,-0.107449 0.04298,-0.195945 0.09546,-0.196579 0.05937,-5.63e-4 0.06533,-0.01914 0.02079,-0.05243 z m 37.788176,0 c 0.0043,0.972343 0.03753,1.98046 0.09078,2.024665 0.138033,0.114558 0.657819,-0.130852 0.908708,-0.42901 0.109073,-0.129624 0.223327,-0.2118 0.253898,-0.182623 0.0306,0.02919 0.03224,-0.06725 0.0034,-0.214242 -0.02844,-0.146964 -0.02391,-0.227431 0.0101,-0.178919 0.03407,0.04852 0.05998,-0.174823 0.05763,-0.496259 -8.41e-4,-0.122371 0.0043,-0.31351 0.01317,-0.523599 z m -27.959493,4.329061 c -0.04809,0 -0.06508,0.07236 -0.04011,0.171738 l 0.04316,0.171738 h -2.916916 c -3.016328,0 -3.650427,0.04289 -5.245502,0.354698 -0.878161,0.171666 -2.091014,0.535863 -2.535528,0.761379 -0.319107,0.161905 -0.395741,0.177819 -0.328,0.06821 0.0273,-0.04412 -0.0052,-0.05556 -0.07826,-0.02755 -0.09996,0.0384 -0.104611,0.06075 -0.02314,0.112447 0.09013,0.05711 0.03959,0.09677 -0.10025,0.0786 -0.09519,-0.01245 0.03372,0.333485 0.187754,0.503659 0.199076,0.219981 0.08034,0.224591 -0.152453,0.0061 -0.0972,-0.0913 -0.176749,-0.125691 -0.176749,-0.07634 0,0.04931 0.0344,0.08969 0.07634,0.08969 0.04203,0 0.07625,0.03553 0.07625,0.07903 0,0.04966 -0.06377,0.04368 -0.171755,-0.01624 -0.09449,-0.05243 -0.198194,-0.08773 -0.230473,-0.0786 -0.124408,0.03535 -0.235707,-0.35574 -0.13555,-0.476413 0.14346,-0.172857 0.910225,-0.51445 1.017017,-0.453102 0.0513,0.02956 0.0668,0.02436 0.03424,-0.01155 -0.052,-0.0572 0.62844,-0.351035 1.051671,-0.454184 0.08398,-0.02057 0.427523,-0.105374 0.763441,-0.188636 0.33593,-0.08327 0.971573,-0.199935 1.412473,-0.259348 0.440901,-0.05936 0.674562,-0.112068 0.519241,-0.117048 -0.155302,-0.0052 -0.687871,0.04464 -1.183412,0.110282 -0.495539,0.0657 -0.959613,0.124427 -1.031298,0.130562 -0.07166,0.0061 -0.114645,0.02678 -0.09546,0.04601 0.01921,0.01922 -0.406175,0.180146 -0.945315,0.357534 -0.539137,0.177404 -1.09742,0.385985 -1.240625,0.463554 -0.251237,0.136084 -0.301274,0.152954 -0.508565,0.172062 -0.05252,0.0052 -0.09534,0.04747 -0.09534,0.09458 0,0.0579 0.03849,0.05364 0.118668,-0.01281 0.10556,-0.08762 0.108566,-0.07618 0.02678,0.103299 -0.08025,0.176086 -0.0676,0.238688 0.09939,0.491017 0.105268,0.159054 0.216546,0.368245 0.247249,0.464983 l 0.05582,0.17587 -0.712986,-0.04316 C 15.88494,24.156373 14.894146,24.100473 14.07533,24.056 13.256513,24.01155 12.090649,23.924312 11.484557,23.862143 10.878474,23.800003 10.285563,23.770373 10.16689,23.796453 9.5852827,23.92419 8.1119311,23.425772 7.6621997,22.949099 7.4081822,22.679854 7.4059202,22.672817 7.6163567,22.80679 7.8347574,22.945851 7.8366128,22.945671 7.7562678,22.79542 7.6665578,22.627796 7.520197,22.625558 9.7043349,22.82636 10.4237,22.89249 10.428059,22.84603 9.7236579,22.620186 9.324557,22.492204 6.9158822,22.151608 6.4099872,22.151608 v -1.14e-4 c -0.16209,0 -0.162036,5.65e-4 0.144279,0.608822 0.239451,0.475486 1.1553963,1.583246 1.2395346,1.499108 0.018621,-0.01853 0.1010544,0.03327 0.1830691,0.11528 0.081981,0.08199 0.1821675,0.128632 0.222629,0.103642 0.04047,-0.02504 0.073574,-0.01371 0.073574,0.02504 0,0.03883 0.094512,0.07167 0.2099848,0.0727 0.3661995,0.0034 0.4007943,0.01588 0.4007943,0.141985 0,0.08587 0.046451,0.111238 0.1526678,0.08345 0.083975,-0.02192 0.1527725,-0.0078 0.1527725,0.03076 0,0.03883 0.091011,0.04774 0.2022469,0.01988 0.1366542,-0.03434 0.1855732,-0.02384 0.1509266,0.03223 -0.034925,0.0565 0.034405,0.06898 0.2177252,0.03926 0.1799658,-0.02919 0.268828,-0.01371 0.268828,0.04619 0,0.06066 0.0838,0.07411 0.258481,0.04134 0.155719,-0.02919 0.278924,-0.01534 0.309905,0.03475 0.02825,0.04576 0.172696,0.08309 0.32092,0.08309 0.148224,0 0.683982,0.07158 1.190502,0.158981 1.353942,0.233689 9.79884,0.108424 10.975492,-0.162806 0.740139,-0.170601 7.015507,-0.349143 7.518405,-0.2139 0.149237,0.04013 0.188522,0.01853 0.207484,-0.11454 0.02295,-0.160966 0.05252,-0.164304 1.588461,-0.183618 0.860803,-0.01083 2.200681,-0.03354 2.977511,-0.05045 1.096691,-0.02384 1.241829,-0.01714 0.649025,0.02972 -0.419905,0.03329 -1.066122,0.06456 -1.436012,0.06949 -0.369901,0.0052 -0.653729,0.03944 -0.63072,0.07661 0.02329,0.03769 1.720904,0.07098 3.833242,0.07504 2.085286,0.0043 3.801461,0.01732 3.813748,0.02972 0.01227,0.01227 -0.05953,0.312547 -0.159649,0.667335 -0.154308,0.546783 -0.189492,0.811521 -0.09043,0.680732 0.03699,-0.04888 0.428319,-1.462581 0.451568,-1.631394 0.02034,-0.146892 -0.06456,-0.148678 -5.867502,-0.126088 l -5.887993,0.02286 -0.03475,-0.23646 -0.03466,-0.236584 h 3.639063 c 5.280668,0 7.5558,0.06689 7.563514,0.222197 0.0043,0.07885 0.01943,0.08798 0.04446,0.02593 0.04827,-0.119556 0.537229,-0.126485 0.57667,-0.0078 0.02079,0.06258 0.07124,0.06472 0.178053,0.0078 0.325512,-0.174192 0.904905,-0.207349 0.840057,-0.04809 -0.03223,0.0793 -0.109705,0.367369 -0.172063,0.640315 -0.10218,0.447114 -0.287426,1.033362 -0.440355,1.393408 -0.03188,0.07515 -0.02384,0.133612 0.01853,0.133612 0.08199,0 0.304956,-0.492557 0.512265,-1.13133 l 0.131736,-0.406029 1.47699,0.01898 c 0.812335,0.01046 1.461888,0.04341 1.443307,0.07349 -0.01853,0.03008 0.111996,0.114775 0.290192,0.188297 0.481101,0.198487 3.72134,0.270995 3.72134,0.08327 0,-0.08832 -0.07194,-0.125961 -0.248135,-0.129786 -0.207935,-0.0043 -0.223302,-0.01606 -0.09534,-0.07098 0.108117,-0.04644 -0.0034,-0.07115 -0.381721,-0.08459 -1.040362,-0.03685 -1.148246,-0.04421 -1.44146,-0.09938 -0.524693,-0.09875 -0.192682,-0.224342 0.605659,-0.229062 0.713447,-0.0043 0.723212,-0.007 0.3645,-0.08978 l -0.368539,-0.08545 0.458008,-0.03849 c 0.251937,-0.02102 -0.718568,-0.02124 -2.156743,-2.85e-4 l -2.614848,0.03813 v -0.191122 c 0,-0.207415 0.318753,-0.286749 1.159762,-0.288232 0.196976,-2.78e-4 0.374424,-0.02703 0.394366,-0.05927 0.01988,-0.03223 -0.09891,-0.04583 -0.264142,-0.03008 -0.165225,0.01588 -0.34761,-0.01064 -0.405367,-0.05848 -0.05772,-0.04792 -0.438243,-0.151601 -0.845503,-0.230473 -0.499247,-0.09668 -0.795772,-0.195393 -0.910119,-0.302833 -0.203145,-0.190851 -0.336158,-0.21241 -0.188185,-0.03051 0.09271,0.11398 0.08798,0.122497 -0.04177,0.07374 -0.457062,-0.171665 -1.494852,-0.306975 -1.494852,-0.194942 0,0.03778 -0.146062,0.06465 -0.324514,0.05971 -0.290632,-0.0078 -0.300634,-0.01407 -0.09612,-0.0579 0.190601,-0.04081 0.133811,-0.06465 -0.343582,-0.144835 -0.314544,-0.05278 -0.983227,-0.166055 -1.485917,-0.251608 -0.50269,-0.08554 -0.990171,-0.136355 -1.083277,-0.112988 -0.0931,0.02338 -0.18875,0.01083 -0.212614,-0.02764 -0.08605,-0.139278 -1.22793,-0.17661 -2.662899,-0.08708 -2.400554,0.149779 -3.870343,0.199144 -3.846981,0.129137 0.01191,-0.03614 0.24393,-0.07991 0.515325,-0.0972 0.271385,-0.01714 0.988471,-0.08406 1.593471,-0.148317 0.604999,-0.06429 1.369637,-0.1186 1.699169,-0.120748 0.329536,-0.0017 0.615237,-0.03008 0.634967,-0.06205 0.08163,-0.132133 -3.371953,-0.385438 -5.47183,-0.401333 l -1.57963,-0.01191 -0.0443,-0.176213 c -0.02436,-0.09693 -0.08163,-0.176213 -0.127387,-0.176213 z m -5.177506,0.801476 c 1.042528,0.01353 2.022949,0.0931 2.288156,0.230257 0.163708,0.08468 0.493174,0.113439 1.298385,0.113439 0.775798,0 1.070851,0.02461 1.049931,0.08739 -0.04109,0.123165 -1.636801,0.171215 -1.911238,0.05754 -0.140053,-0.05797 -0.242154,-0.06187 -0.305658,-0.01155 -0.157177,0.1245 -3.293377,0.129697 -3.218547,0.0052 0.04091,-0.06793 0.01371,-0.06344 -0.08336,0.01407 -0.08379,0.06674 -0.119936,0.07477 -0.08657,0.01922 0.05945,-0.09875 -0.05261,-0.126196 -0.399159,-0.09731 -0.396079,0.03302 -0.05884,-0.134821 0.388594,-0.193426 0.793346,-0.103894 0.150086,-0.131898 -0.877104,-0.03813 -0.878613,0.08017 -1.180865,0.07246 -0.804422,-0.02057 0.513772,-0.127027 1.618421,-0.179587 2.660949,-0.166055 z M 7.8754789,23.46715 c 0.0026,-5.65e-4 0.00779,4.17e-4 0.01595,0.0034 0.063003,0.02479 0.5199866,0.219168 1.0154915,0.431853 0.6265179,0.268905 1.0028308,0.386624 1.2356166,0.386624 0.184109,0 0.431438,0.03865 0.549651,0.08587 0.217716,0.08693 0.49924,0.104003 2.963446,0.180254 3.021377,0.09347 3.70184,0.09942 3.660201,0.03206 -0.02348,-0.03804 -0.172454,-0.06907 -0.330947,-0.06907 -0.371806,0 -0.449886,-0.08224 -0.181968,-0.191775 0.203709,-0.08327 0.878873,0.326587 1.226023,0.744273 0.172626,0.207707 -3.693947,-0.0043 -5.976591,-0.327672 -1.380101,-0.195491 -1.415753,-0.200914 -1.641425,-0.251803 -0.10498,-0.02366 -0.328285,-0.05997 -0.4962499,-0.08077 -0.2978163,-0.03674 -1.183491,-0.304713 -1.4124729,-0.427268 -0.1727134,-0.09245 -0.6689726,-0.50553 -0.6266911,-0.515974 z m 9.0519491,0.169338 c 0.02443,-8.68e-4 0.07514,0.02894 0.15494,0.08129 0.20502,0.134334 0.206828,0.134424 2.005714,0.144276 0.720362,0.0043 1.293002,0.03423 1.272552,0.06725 -0.02057,0.03302 0.712821,0.05016 1.62954,0.03813 0.916723,-0.01191 3.043458,-0.01407 4.726043,-0.0043 l 3.059342,0.01768 0.09709,0.211416 c 0.05337,0.11629 0.139531,0.298301 0.191348,0.404494 0.09265,0.189855 0.08968,0.192567 -0.173705,0.161814 -0.23342,-0.02721 -0.251366,-0.04325 -0.139476,-0.125078 0.07062,-0.05164 0.12847,-0.115893 0.12847,-0.14276 0,-0.02687 -1.228322,-0.04861 -2.729489,-0.04836 -1.501161,2.86e-4 -4.086398,-0.03804 -5.745019,-0.0852 -2.047528,-0.05824 -3.175072,-0.06102 -3.512005,-0.0088 -0.272946,0.04219 -0.530543,0.05469 -0.572539,0.02791 -0.04203,-0.02678 0.09539,-0.06916 0.30534,-0.09404 l 0.38172,-0.04524 -0.442851,-0.01191 C 17.135368,24.21344 17.118052,24.20458 17.01088,23.948132 16.91897,23.728151 16.886721,23.638677 16.92742,23.636588 Z" /><text
       xml:space="preserve"
       style="font-size:5.96828px;line-height:1.25;font-family:sans-serif;letter-spacing:0.596253px;word-spacing:0px;fill:#ffffff;stroke-width:0.0746036"
       x="11.484984"
       y="12.452379"
       id="text511"
       transform="scale(0.76238885,1.3116666)"><tspan
         sodipodi:role="line"
         id="tspan509"
         style="font-style:normal;font-variant:normal;font-weight:normal;font-stretch:normal;font-family:Recharge;-inkscape-font-specification:Recharge;fill:#ffffff;stroke-width:0.0746036"
         x="11.484984"
         y="12.452379"
         dy="0"
         dx="0">NEW CARZONE</tspan></text><path
       sodipodi:type="star"
       style="opacity:1;mix-blend-mode:normal;fill:url(#radialGradient1065);fill-opacity:1;stroke:url(#radialGradient1647);stroke-width:0.98054984;stroke-linejoin:miter;stroke-dasharray:none;stroke-opacity:1;paint-order:stroke fill markers"
       id="path1057"
       inkscape:flatsided="false"
       sodipodi:sides="5"
       sodipodi:cx="38.02911"
       sodipodi:cy="12.318494"
       sodipodi:r1="33.24255"
       sodipodi:r2="1.6173646"
       sodipodi:arg1="0.82468093"
       sodipodi:arg2="1.5515369"
       inkscape:rounded="-0.034143705"
       inkscape:randomized="0"
       d="M 60.593864,36.729537 C 61.4667,36.069378 36.973469,14.064176 38.060258,13.935559 39.140448,13.807722 20.8936,40.699962 21.785721,41.322277 22.683291,41.948393 36.042656,11.853965 36.500815,12.847817 36.956192,13.835636 5.7415657,4.792012 5.4253897,5.8327748 5.1072825,6.8798948 37.857055,10.285717 37.053424,11.028569 c -0.798752,0.738342 -1.843604,-31.743165 -2.931132,-31.722253 -1.094171,0.02104 5.786936,32.220382 4.832106,31.685637 C 38.005364,10.460455 68.574237,-0.57059675 68.218284,-1.5984352 67.860156,-2.6325517 39.363141,13.861914 39.576655,12.788571 39.788872,11.721745 59.726327,37.385688 60.593864,36.729537 Z"
       inkscape:transform-center-x="-0.30954517"
       inkscape:transform-center-y="1.588654"
       transform="matrix(0.36081196,-0.19466243,0.19466243,0.36081196,22.162672,15.264868)" /></g></svg>
